<mxfile host="app.diagrams.net" modified="2021-06-30T00:10:17.875Z" agent="5.0 (Windows NT 10.0; Win64; x64) AppleWebKit/537.36 (KHTML, like Gecko) Chrome/91.0.4472.114 Safari/537.36" etag="FAzeWXa69raluWQf-NYO" version="14.8.2" type="github">
  <diagram id="v4buRE5ptZxtvALEfj65" name="Page-1">
    <mxGraphModel dx="1808" dy="548" grid="1" gridSize="10" guides="1" tooltips="1" connect="1" arrows="1" fold="1" page="1" pageScale="1" pageWidth="827" pageHeight="1169" math="0" shadow="0">
      <root>
        <mxCell id="0" />
        <mxCell id="1" parent="0" />
        <mxCell id="g1BGLv2u2QTpNlaoq-qh-4" value="&lt;p&gt;&lt;span style=&quot;font-size: 12px ; font-weight: normal&quot;&gt;EquiposOneClickV2Controller es donde se configuran los endpoints para la aplicacion&lt;/span&gt;&lt;/p&gt;" style="text;html=1;strokeColor=none;fillColor=none;spacing=5;spacingTop=-20;whiteSpace=wrap;overflow=hidden;rounded=0;" parent="1" vertex="1">
          <mxGeometry x="120" y="80" width="480" height="20" as="geometry" />
        </mxCell>
        <mxCell id="g1BGLv2u2QTpNlaoq-qh-13" value="" style="edgeStyle=orthogonalEdgeStyle;rounded=0;orthogonalLoop=1;jettySize=auto;html=1;" parent="1" source="g1BGLv2u2QTpNlaoq-qh-9" target="g1BGLv2u2QTpNlaoq-qh-12" edge="1">
          <mxGeometry relative="1" as="geometry" />
        </mxCell>
        <mxCell id="g1BGLv2u2QTpNlaoq-qh-9" value="&lt;span&gt;Se ejecuta el endpoint:&lt;/span&gt;&lt;br&gt;&lt;span&gt;-&amp;nbsp;ProductosOneClick/credito_cobranza/credito/consumo-telefonia/v2/productos/busquedas&lt;/span&gt;" style="shape=parallelogram;perimeter=parallelogramPerimeter;whiteSpace=wrap;html=1;fixedSize=1;" parent="1" vertex="1">
          <mxGeometry x="110" y="10" width="500" height="60" as="geometry" />
        </mxCell>
        <mxCell id="g1BGLv2u2QTpNlaoq-qh-15" value="" style="edgeStyle=orthogonalEdgeStyle;rounded=0;orthogonalLoop=1;jettySize=auto;html=1;" parent="1" source="g1BGLv2u2QTpNlaoq-qh-12" target="g1BGLv2u2QTpNlaoq-qh-14" edge="1">
          <mxGeometry relative="1" as="geometry" />
        </mxCell>
        <mxCell id="g1BGLv2u2QTpNlaoq-qh-12" value="Se obtiene:&lt;br&gt;-&amp;nbsp;idProducto&lt;br&gt;- idPlataformaOferta&lt;br&gt;-&amp;nbsp;lineaCredito" style="shape=process;whiteSpace=wrap;html=1;backgroundOutline=1;" parent="1" vertex="1">
          <mxGeometry x="640" y="10" width="150" height="60" as="geometry" />
        </mxCell>
        <mxCell id="EbiJd6XaGonttQ5qAU7--7" value="" style="edgeStyle=orthogonalEdgeStyle;rounded=0;orthogonalLoop=1;jettySize=auto;html=1;" edge="1" parent="1" source="g1BGLv2u2QTpNlaoq-qh-14" target="EbiJd6XaGonttQ5qAU7--6">
          <mxGeometry relative="1" as="geometry" />
        </mxCell>
        <mxCell id="EbiJd6XaGonttQ5qAU7--21" value="" style="edgeStyle=none;rounded=0;orthogonalLoop=1;jettySize=auto;html=1;" edge="1" parent="1" source="g1BGLv2u2QTpNlaoq-qh-14" target="EbiJd6XaGonttQ5qAU7--20">
          <mxGeometry relative="1" as="geometry" />
        </mxCell>
        <mxCell id="EbiJd6XaGonttQ5qAU7--22" value="Si" style="edgeLabel;html=1;align=center;verticalAlign=middle;resizable=0;points=[];" vertex="1" connectable="0" parent="EbiJd6XaGonttQ5qAU7--21">
          <mxGeometry x="-0.64" y="1" relative="1" as="geometry">
            <mxPoint x="-1" as="offset" />
          </mxGeometry>
        </mxCell>
        <mxCell id="g1BGLv2u2QTpNlaoq-qh-14" value="¿Los atributos anteriores son validos (no nulos)?" style="rhombus;whiteSpace=wrap;html=1;" parent="1" vertex="1">
          <mxGeometry x="652.5" y="110" width="125" height="100" as="geometry" />
        </mxCell>
        <mxCell id="g1BGLv2u2QTpNlaoq-qh-20" value="" style="edgeStyle=orthogonalEdgeStyle;rounded=0;orthogonalLoop=1;jettySize=auto;html=1;" parent="1" source="g1BGLv2u2QTpNlaoq-qh-17" target="g1BGLv2u2QTpNlaoq-qh-19" edge="1">
          <mxGeometry relative="1" as="geometry" />
        </mxCell>
        <mxCell id="g1BGLv2u2QTpNlaoq-qh-17" value="Se lanza una excepcion generica con status 400" style="whiteSpace=wrap;html=1;" parent="1" vertex="1">
          <mxGeometry x="655" y="930" width="120" height="60" as="geometry" />
        </mxCell>
        <mxCell id="g1BGLv2u2QTpNlaoq-qh-19" value="FIN" style="ellipse;whiteSpace=wrap;html=1;" parent="1" vertex="1">
          <mxGeometry x="377.5" y="1030" width="85" height="40" as="geometry" />
        </mxCell>
        <mxCell id="g1BGLv2u2QTpNlaoq-qh-22" value="" style="edgeStyle=orthogonalEdgeStyle;rounded=0;orthogonalLoop=1;jettySize=auto;html=1;" parent="1" source="g1BGLv2u2QTpNlaoq-qh-21" target="g1BGLv2u2QTpNlaoq-qh-9" edge="1">
          <mxGeometry relative="1" as="geometry" />
        </mxCell>
        <mxCell id="g1BGLv2u2QTpNlaoq-qh-21" value="Inicio" style="ellipse;whiteSpace=wrap;html=1;" parent="1" vertex="1">
          <mxGeometry x="10" y="20" width="80" height="40" as="geometry" />
        </mxCell>
        <mxCell id="EbiJd6XaGonttQ5qAU7--9" value="" style="edgeStyle=orthogonalEdgeStyle;rounded=0;orthogonalLoop=1;jettySize=auto;html=1;" edge="1" parent="1" source="EbiJd6XaGonttQ5qAU7--6" target="EbiJd6XaGonttQ5qAU7--8">
          <mxGeometry relative="1" as="geometry" />
        </mxCell>
        <mxCell id="EbiJd6XaGonttQ5qAU7--6" value="&lt;span&gt;Se asignan los valores de RenovacionGeneral&lt;/span&gt;" style="shape=process;whiteSpace=wrap;html=1;backgroundOutline=1;" vertex="1" parent="1">
          <mxGeometry x="430" y="130" width="140" height="60" as="geometry" />
        </mxCell>
        <mxCell id="EbiJd6XaGonttQ5qAU7--11" value="" style="edgeStyle=orthogonalEdgeStyle;rounded=0;orthogonalLoop=1;jettySize=auto;html=1;" edge="1" parent="1" source="EbiJd6XaGonttQ5qAU7--8" target="EbiJd6XaGonttQ5qAU7--10">
          <mxGeometry relative="1" as="geometry" />
        </mxCell>
        <mxCell id="EbiJd6XaGonttQ5qAU7--8" value="Se realiza un llamado a un servicio del MSD que regresa todos los datos de la tabla" style="whiteSpace=wrap;html=1;" vertex="1" parent="1">
          <mxGeometry x="270" y="130" width="120" height="60" as="geometry" />
        </mxCell>
        <mxCell id="EbiJd6XaGonttQ5qAU7--19" value="" style="edgeStyle=none;rounded=0;orthogonalLoop=1;jettySize=auto;html=1;" edge="1" parent="1" source="EbiJd6XaGonttQ5qAU7--10" target="EbiJd6XaGonttQ5qAU7--18">
          <mxGeometry relative="1" as="geometry" />
        </mxCell>
        <mxCell id="EbiJd6XaGonttQ5qAU7--28" value="" style="edgeStyle=none;rounded=0;orthogonalLoop=1;jettySize=auto;html=1;" edge="1" parent="1" source="EbiJd6XaGonttQ5qAU7--10" target="EbiJd6XaGonttQ5qAU7--27">
          <mxGeometry relative="1" as="geometry" />
        </mxCell>
        <mxCell id="EbiJd6XaGonttQ5qAU7--29" value="Si" style="edgeLabel;html=1;align=center;verticalAlign=middle;resizable=0;points=[];" vertex="1" connectable="0" parent="EbiJd6XaGonttQ5qAU7--28">
          <mxGeometry x="-0.632" relative="1" as="geometry">
            <mxPoint x="-2" y="10" as="offset" />
          </mxGeometry>
        </mxCell>
        <mxCell id="EbiJd6XaGonttQ5qAU7--10" value="¿La respuesta del servicio es correcta y valida?" style="rhombus;whiteSpace=wrap;html=1;" vertex="1" parent="1">
          <mxGeometry x="40" y="120" width="170" height="80" as="geometry" />
        </mxCell>
        <mxCell id="EbiJd6XaGonttQ5qAU7--16" value="" style="endArrow=classic;html=1;" edge="1" parent="1" source="EbiJd6XaGonttQ5qAU7--18" target="EbiJd6XaGonttQ5qAU7--20">
          <mxGeometry width="50" height="50" relative="1" as="geometry">
            <mxPoint x="140" y="220" as="sourcePoint" />
            <mxPoint x="650" y="230" as="targetPoint" />
            <Array as="points">
              <mxPoint x="410" y="230" />
            </Array>
          </mxGeometry>
        </mxCell>
        <mxCell id="EbiJd6XaGonttQ5qAU7--17" value="No" style="edgeLabel;html=1;align=center;verticalAlign=middle;resizable=0;points=[];" vertex="1" connectable="0" parent="EbiJd6XaGonttQ5qAU7--16">
          <mxGeometry x="-0.8154" y="3" relative="1" as="geometry">
            <mxPoint x="-39" y="-7" as="offset" />
          </mxGeometry>
        </mxCell>
        <mxCell id="EbiJd6XaGonttQ5qAU7--18" value="" style="shape=waypoint;size=6;pointerEvents=1;points=[];fillColor=#ffffff;resizable=0;rotatable=0;perimeter=centerPerimeter;snapToPoint=1;" vertex="1" parent="1">
          <mxGeometry x="105" y="210" width="40" height="40" as="geometry" />
        </mxCell>
        <mxCell id="EbiJd6XaGonttQ5qAU7--20" value="" style="shape=waypoint;size=6;pointerEvents=1;points=[];fillColor=#ffffff;resizable=0;rotatable=0;perimeter=centerPerimeter;snapToPoint=1;" vertex="1" parent="1">
          <mxGeometry x="695" y="210" width="40" height="40" as="geometry" />
        </mxCell>
        <mxCell id="EbiJd6XaGonttQ5qAU7--31" value="" style="edgeStyle=none;rounded=0;orthogonalLoop=1;jettySize=auto;html=1;" edge="1" parent="1" source="EbiJd6XaGonttQ5qAU7--27" target="EbiJd6XaGonttQ5qAU7--30">
          <mxGeometry relative="1" as="geometry" />
        </mxCell>
        <mxCell id="EbiJd6XaGonttQ5qAU7--27" value="" style="shape=waypoint;size=6;pointerEvents=1;points=[];fillColor=#ffffff;resizable=0;rotatable=0;perimeter=centerPerimeter;snapToPoint=1;" vertex="1" parent="1">
          <mxGeometry y="140" width="40" height="40" as="geometry" />
        </mxCell>
        <mxCell id="EbiJd6XaGonttQ5qAU7--35" value="" style="edgeStyle=none;rounded=0;orthogonalLoop=1;jettySize=auto;html=1;" edge="1" parent="1" source="EbiJd6XaGonttQ5qAU7--30" target="EbiJd6XaGonttQ5qAU7--34">
          <mxGeometry relative="1" as="geometry" />
        </mxCell>
        <mxCell id="EbiJd6XaGonttQ5qAU7--30" value="Se arma coleccion de SKU&#39;s" style="rounded=0;whiteSpace=wrap;html=1;" vertex="1" parent="1">
          <mxGeometry x="10" y="260" width="120" height="60" as="geometry" />
        </mxCell>
        <mxCell id="EbiJd6XaGonttQ5qAU7--37" value="" style="edgeStyle=none;rounded=0;orthogonalLoop=1;jettySize=auto;html=1;" edge="1" parent="1" source="EbiJd6XaGonttQ5qAU7--34" target="EbiJd6XaGonttQ5qAU7--36">
          <mxGeometry relative="1" as="geometry" />
        </mxCell>
        <mxCell id="EbiJd6XaGonttQ5qAU7--34" value="Se descifra la cadena de LCR para obtener la familia, cap de pago y el tipopromo" style="whiteSpace=wrap;html=1;rounded=0;" vertex="1" parent="1">
          <mxGeometry x="170" y="260" width="120" height="60" as="geometry" />
        </mxCell>
        <mxCell id="EbiJd6XaGonttQ5qAU7--39" value="" style="edgeStyle=none;rounded=0;orthogonalLoop=1;jettySize=auto;html=1;" edge="1" parent="1" source="EbiJd6XaGonttQ5qAU7--36" target="EbiJd6XaGonttQ5qAU7--38">
          <mxGeometry relative="1" as="geometry" />
        </mxCell>
        <mxCell id="EbiJd6XaGonttQ5qAU7--36" value="Se configura un objeto&amp;nbsp; modalidadesTasas el cual se manda&amp;nbsp; para obtener los y precios de los productos por sku al BRMS" style="whiteSpace=wrap;html=1;rounded=0;" vertex="1" parent="1">
          <mxGeometry x="330" y="250" width="160" height="100" as="geometry" />
        </mxCell>
        <mxCell id="EbiJd6XaGonttQ5qAU7--41" value="" style="edgeStyle=none;rounded=0;orthogonalLoop=1;jettySize=auto;html=1;" edge="1" parent="1" source="EbiJd6XaGonttQ5qAU7--38" target="EbiJd6XaGonttQ5qAU7--40">
          <mxGeometry relative="1" as="geometry" />
        </mxCell>
        <mxCell id="EbiJd6XaGonttQ5qAU7--42" value="Si" style="edgeLabel;html=1;align=center;verticalAlign=middle;resizable=0;points=[];" vertex="1" connectable="0" parent="EbiJd6XaGonttQ5qAU7--41">
          <mxGeometry x="-0.3612" relative="1" as="geometry">
            <mxPoint as="offset" />
          </mxGeometry>
        </mxCell>
        <mxCell id="EbiJd6XaGonttQ5qAU7--44" value="" style="edgeStyle=none;rounded=0;orthogonalLoop=1;jettySize=auto;html=1;" edge="1" parent="1" source="EbiJd6XaGonttQ5qAU7--38" target="EbiJd6XaGonttQ5qAU7--43">
          <mxGeometry relative="1" as="geometry" />
        </mxCell>
        <mxCell id="EbiJd6XaGonttQ5qAU7--45" value="No" style="edgeLabel;html=1;align=center;verticalAlign=middle;resizable=0;points=[];" vertex="1" connectable="0" parent="EbiJd6XaGonttQ5qAU7--44">
          <mxGeometry x="-0.2152" y="1" relative="1" as="geometry">
            <mxPoint as="offset" />
          </mxGeometry>
        </mxCell>
        <mxCell id="EbiJd6XaGonttQ5qAU7--38" value="¿El objeto de con las&amp;nbsp; cotizaciones es nulo?" style="rhombus;whiteSpace=wrap;html=1;rounded=0;" vertex="1" parent="1">
          <mxGeometry x="540" y="250" width="150" height="100" as="geometry" />
        </mxCell>
        <mxCell id="EbiJd6XaGonttQ5qAU7--40" value="" style="shape=waypoint;size=6;pointerEvents=1;points=[];fillColor=#ffffff;resizable=0;rotatable=0;perimeter=centerPerimeter;snapToPoint=1;rounded=0;" vertex="1" parent="1">
          <mxGeometry x="695" y="280" width="40" height="40" as="geometry" />
        </mxCell>
        <mxCell id="EbiJd6XaGonttQ5qAU7--47" value="" style="edgeStyle=none;rounded=0;orthogonalLoop=1;jettySize=auto;html=1;" edge="1" parent="1" source="EbiJd6XaGonttQ5qAU7--43" target="EbiJd6XaGonttQ5qAU7--46">
          <mxGeometry relative="1" as="geometry" />
        </mxCell>
        <mxCell id="EbiJd6XaGonttQ5qAU7--43" value="Se arma el objeto RequestAbonos para mandarlo al api de tasas que mandara los abonos" style="whiteSpace=wrap;html=1;rounded=0;" vertex="1" parent="1">
          <mxGeometry x="540" y="390" width="150" height="60" as="geometry" />
        </mxCell>
        <mxCell id="EbiJd6XaGonttQ5qAU7--49" value="" style="edgeStyle=none;rounded=0;orthogonalLoop=1;jettySize=auto;html=1;" edge="1" parent="1" source="EbiJd6XaGonttQ5qAU7--46" target="EbiJd6XaGonttQ5qAU7--60">
          <mxGeometry relative="1" as="geometry">
            <mxPoint x="235" y="420" as="targetPoint" />
          </mxGeometry>
        </mxCell>
        <mxCell id="EbiJd6XaGonttQ5qAU7--50" value="Si" style="edgeLabel;html=1;align=center;verticalAlign=middle;resizable=0;points=[];" vertex="1" connectable="0" parent="EbiJd6XaGonttQ5qAU7--49">
          <mxGeometry x="0.4512" relative="1" as="geometry">
            <mxPoint x="9" y="-10" as="offset" />
          </mxGeometry>
        </mxCell>
        <mxCell id="EbiJd6XaGonttQ5qAU7--52" value="" style="edgeStyle=none;rounded=0;orthogonalLoop=1;jettySize=auto;html=1;" edge="1" parent="1" source="EbiJd6XaGonttQ5qAU7--46" target="EbiJd6XaGonttQ5qAU7--51">
          <mxGeometry relative="1" as="geometry" />
        </mxCell>
        <mxCell id="EbiJd6XaGonttQ5qAU7--53" value="No" style="edgeLabel;html=1;align=center;verticalAlign=middle;resizable=0;points=[];" vertex="1" connectable="0" parent="EbiJd6XaGonttQ5qAU7--52">
          <mxGeometry x="-0.5011" y="1" relative="1" as="geometry">
            <mxPoint as="offset" />
          </mxGeometry>
        </mxCell>
        <mxCell id="EbiJd6XaGonttQ5qAU7--46" value="¿El response es valido y correcto?" style="rhombus;whiteSpace=wrap;html=1;rounded=0;" vertex="1" parent="1">
          <mxGeometry x="270" y="380" width="150" height="80" as="geometry" />
        </mxCell>
        <mxCell id="EbiJd6XaGonttQ5qAU7--51" value="" style="shape=waypoint;size=6;pointerEvents=1;points=[];fillColor=#ffffff;resizable=0;rotatable=0;perimeter=centerPerimeter;snapToPoint=1;rounded=0;" vertex="1" parent="1">
          <mxGeometry x="325" y="470" width="40" height="40" as="geometry" />
        </mxCell>
        <mxCell id="EbiJd6XaGonttQ5qAU7--58" value="" style="endArrow=classic;html=1;entryX=0.475;entryY=0.584;entryDx=0;entryDy=0;entryPerimeter=0;" edge="1" parent="1" source="EbiJd6XaGonttQ5qAU7--51" target="EbiJd6XaGonttQ5qAU7--59">
          <mxGeometry width="50" height="50" relative="1" as="geometry">
            <mxPoint x="440" y="515" as="sourcePoint" />
            <mxPoint x="710" y="490" as="targetPoint" />
          </mxGeometry>
        </mxCell>
        <mxCell id="EbiJd6XaGonttQ5qAU7--59" value="" style="shape=waypoint;size=6;pointerEvents=1;points=[];fillColor=#ffffff;resizable=0;rotatable=0;perimeter=centerPerimeter;snapToPoint=1;rounded=0;" vertex="1" parent="1">
          <mxGeometry x="695" y="470" width="40" height="40" as="geometry" />
        </mxCell>
        <mxCell id="EbiJd6XaGonttQ5qAU7--62" value="" style="edgeStyle=none;rounded=0;orthogonalLoop=1;jettySize=auto;html=1;entryX=0.5;entryY=0;entryDx=0;entryDy=0;" edge="1" parent="1" source="EbiJd6XaGonttQ5qAU7--60" target="EbiJd6XaGonttQ5qAU7--64">
          <mxGeometry relative="1" as="geometry">
            <mxPoint x="142.5" y="500" as="targetPoint" />
          </mxGeometry>
        </mxCell>
        <mxCell id="EbiJd6XaGonttQ5qAU7--63" value="Si" style="edgeLabel;html=1;align=center;verticalAlign=middle;resizable=0;points=[];" vertex="1" connectable="0" parent="EbiJd6XaGonttQ5qAU7--62">
          <mxGeometry x="-0.3521" y="2" relative="1" as="geometry">
            <mxPoint as="offset" />
          </mxGeometry>
        </mxCell>
        <mxCell id="EbiJd6XaGonttQ5qAU7--66" value="" style="edgeStyle=none;rounded=0;orthogonalLoop=1;jettySize=auto;html=1;" edge="1" parent="1" source="EbiJd6XaGonttQ5qAU7--60" target="EbiJd6XaGonttQ5qAU7--65">
          <mxGeometry relative="1" as="geometry" />
        </mxCell>
        <mxCell id="EbiJd6XaGonttQ5qAU7--67" value="No" style="edgeLabel;html=1;align=center;verticalAlign=middle;resizable=0;points=[];" vertex="1" connectable="0" parent="EbiJd6XaGonttQ5qAU7--66">
          <mxGeometry x="-0.1434" y="1" relative="1" as="geometry">
            <mxPoint as="offset" />
          </mxGeometry>
        </mxCell>
        <mxCell id="EbiJd6XaGonttQ5qAU7--60" value="¿El api de tasas regresó el plazo para todos los productos?" style="rhombus;whiteSpace=wrap;html=1;" vertex="1" parent="1">
          <mxGeometry x="50" y="365" width="185" height="110" as="geometry" />
        </mxCell>
        <mxCell id="EbiJd6XaGonttQ5qAU7--69" value="" style="edgeStyle=none;rounded=0;orthogonalLoop=1;jettySize=auto;html=1;" edge="1" parent="1" source="EbiJd6XaGonttQ5qAU7--64" target="EbiJd6XaGonttQ5qAU7--68">
          <mxGeometry relative="1" as="geometry" />
        </mxCell>
        <mxCell id="EbiJd6XaGonttQ5qAU7--64" value="Se agrega el abono puntual y el plazo al producto de la lista de productos" style="rounded=0;whiteSpace=wrap;html=1;" vertex="1" parent="1">
          <mxGeometry x="82.5" y="500" width="120" height="60" as="geometry" />
        </mxCell>
        <mxCell id="EbiJd6XaGonttQ5qAU7--65" value="Elimina el producto de la lista de productos" style="whiteSpace=wrap;html=1;" vertex="1" parent="1">
          <mxGeometry x="-100" y="390" width="120" height="60" as="geometry" />
        </mxCell>
        <mxCell id="EbiJd6XaGonttQ5qAU7--71" value="" style="edgeStyle=none;rounded=0;orthogonalLoop=1;jettySize=auto;html=1;" edge="1" parent="1" source="EbiJd6XaGonttQ5qAU7--68" target="EbiJd6XaGonttQ5qAU7--70">
          <mxGeometry relative="1" as="geometry" />
        </mxCell>
        <mxCell id="EbiJd6XaGonttQ5qAU7--72" value="Si" style="edgeLabel;html=1;align=center;verticalAlign=middle;resizable=0;points=[];" vertex="1" connectable="0" parent="EbiJd6XaGonttQ5qAU7--71">
          <mxGeometry x="-0.32" y="-2" relative="1" as="geometry">
            <mxPoint as="offset" />
          </mxGeometry>
        </mxCell>
        <mxCell id="EbiJd6XaGonttQ5qAU7--74" value="" style="edgeStyle=none;rounded=0;orthogonalLoop=1;jettySize=auto;html=1;" edge="1" parent="1" source="EbiJd6XaGonttQ5qAU7--68" target="EbiJd6XaGonttQ5qAU7--73">
          <mxGeometry relative="1" as="geometry" />
        </mxCell>
        <mxCell id="EbiJd6XaGonttQ5qAU7--75" value="No" style="edgeLabel;html=1;align=center;verticalAlign=middle;resizable=0;points=[];" vertex="1" connectable="0" parent="EbiJd6XaGonttQ5qAU7--74">
          <mxGeometry x="-0.2055" y="1" relative="1" as="geometry">
            <mxPoint as="offset" />
          </mxGeometry>
        </mxCell>
        <mxCell id="EbiJd6XaGonttQ5qAU7--68" value="¿El JSON tipoCliente tiene la llave &quot;porcentajeDescuento&quot;?" style="rhombus;whiteSpace=wrap;html=1;rounded=0;" vertex="1" parent="1">
          <mxGeometry x="55" y="585" width="180" height="75" as="geometry" />
        </mxCell>
        <mxCell id="EbiJd6XaGonttQ5qAU7--79" value="" style="edgeStyle=none;rounded=0;orthogonalLoop=1;jettySize=auto;html=1;" edge="1" parent="1" source="EbiJd6XaGonttQ5qAU7--70" target="EbiJd6XaGonttQ5qAU7--78">
          <mxGeometry relative="1" as="geometry" />
        </mxCell>
        <mxCell id="EbiJd6XaGonttQ5qAU7--70" value="&lt;span&gt;Obtiene los descuentos de renovaciones&amp;nbsp;&lt;/span&gt;" style="whiteSpace=wrap;html=1;rounded=0;" vertex="1" parent="1">
          <mxGeometry x="270" y="592.5" width="120" height="60" as="geometry" />
        </mxCell>
        <mxCell id="EbiJd6XaGonttQ5qAU7--81" value="" style="edgeStyle=none;rounded=0;orthogonalLoop=1;jettySize=auto;html=1;" edge="1" parent="1" source="EbiJd6XaGonttQ5qAU7--73" target="EbiJd6XaGonttQ5qAU7--80">
          <mxGeometry relative="1" as="geometry" />
        </mxCell>
        <mxCell id="EbiJd6XaGonttQ5qAU7--73" value="Envia el objeto con los SKU al BRMS para validacion" style="whiteSpace=wrap;html=1;rounded=0;" vertex="1" parent="1">
          <mxGeometry x="85" y="690" width="120" height="60" as="geometry" />
        </mxCell>
        <mxCell id="EbiJd6XaGonttQ5qAU7--82" value="" style="edgeStyle=none;rounded=0;orthogonalLoop=1;jettySize=auto;html=1;entryX=0.5;entryY=0;entryDx=0;entryDy=0;" edge="1" parent="1" source="EbiJd6XaGonttQ5qAU7--78" target="EbiJd6XaGonttQ5qAU7--80">
          <mxGeometry relative="1" as="geometry" />
        </mxCell>
        <mxCell id="EbiJd6XaGonttQ5qAU7--78" value="Envia el objeto de descuento de renovaciones y el objeto con los sku para que el BRM los valide" style="whiteSpace=wrap;html=1;rounded=0;" vertex="1" parent="1">
          <mxGeometry x="430" y="590" width="150" height="62.5" as="geometry" />
        </mxCell>
        <mxCell id="EbiJd6XaGonttQ5qAU7--84" value="" style="edgeStyle=none;rounded=0;orthogonalLoop=1;jettySize=auto;html=1;" edge="1" parent="1" source="EbiJd6XaGonttQ5qAU7--80" target="EbiJd6XaGonttQ5qAU7--83">
          <mxGeometry relative="1" as="geometry" />
        </mxCell>
        <mxCell id="EbiJd6XaGonttQ5qAU7--87" value="Si" style="edgeLabel;html=1;align=center;verticalAlign=middle;resizable=0;points=[];" vertex="1" connectable="0" parent="EbiJd6XaGonttQ5qAU7--84">
          <mxGeometry x="-0.6318" y="2" relative="1" as="geometry">
            <mxPoint as="offset" />
          </mxGeometry>
        </mxCell>
        <mxCell id="EbiJd6XaGonttQ5qAU7--86" value="" style="edgeStyle=none;rounded=0;orthogonalLoop=1;jettySize=auto;html=1;" edge="1" parent="1" source="EbiJd6XaGonttQ5qAU7--80" target="EbiJd6XaGonttQ5qAU7--85">
          <mxGeometry relative="1" as="geometry" />
        </mxCell>
        <mxCell id="EbiJd6XaGonttQ5qAU7--88" value="No" style="edgeLabel;html=1;align=center;verticalAlign=middle;resizable=0;points=[];" vertex="1" connectable="0" parent="EbiJd6XaGonttQ5qAU7--86">
          <mxGeometry x="-0.2336" y="-2" relative="1" as="geometry">
            <mxPoint as="offset" />
          </mxGeometry>
        </mxCell>
        <mxCell id="EbiJd6XaGonttQ5qAU7--80" value="¿El objeto que regresa la validacion esta vacio?" style="rhombus;whiteSpace=wrap;html=1;rounded=0;" vertex="1" parent="1">
          <mxGeometry x="340" y="700" width="160" height="130" as="geometry" />
        </mxCell>
        <mxCell id="EbiJd6XaGonttQ5qAU7--83" value="" style="shape=waypoint;size=6;pointerEvents=1;points=[];fillColor=#ffffff;resizable=0;rotatable=0;perimeter=centerPerimeter;snapToPoint=1;rounded=0;" vertex="1" parent="1">
          <mxGeometry x="695" y="745" width="40" height="40" as="geometry" />
        </mxCell>
        <mxCell id="EbiJd6XaGonttQ5qAU7--89" value="" style="edgeStyle=none;rounded=0;orthogonalLoop=1;jettySize=auto;html=1;" edge="1" parent="1" source="EbiJd6XaGonttQ5qAU7--85" target="g1BGLv2u2QTpNlaoq-qh-19">
          <mxGeometry relative="1" as="geometry" />
        </mxCell>
        <mxCell id="EbiJd6XaGonttQ5qAU7--85" value="Se arma el objeto que será regresado como response&amp;nbsp;" style="whiteSpace=wrap;html=1;rounded=0;" vertex="1" parent="1">
          <mxGeometry x="360" y="880" width="120" height="60" as="geometry" />
        </mxCell>
      </root>
    </mxGraphModel>
  </diagram>
</mxfile>
